<?xml version="1.0" encoding="utf-8"?>
<!-- Generator: Adobe Illustrator 19.2.1, SVG Export Plug-In . SVG Version: 6.00 Build 0)  -->
<svg version="1.1" id="Capa_1" xmlns="http://www.w3.org/2000/svg" xmlns:xlink="http://www.w3.org/1999/xlink" x="0px" y="0px"
	 viewBox="0 0 321 37" style="enable-background:new 0 0 321 37;" xml:space="preserve">
<style type="text/css">
	.st0{stroke:#000000;stroke-width:1.191475e-002;stroke-miterlimit:10;}
</style>
<g transform="translate(0.000000,294.000000) scale(0.100000,-0.100000)">
	<path class="st0" d="M1719.5,2704.4c152.5-86.7,85.9,4.6,41.8,27.1l-53.7,37.8l63.5,6.5c29.1,5.3,326.2,54.4,659.9,107
		c845,136.8,804.6,126.3,549.9,129.8c-146.6,0-276.8-46.4-413.1-69.2c-582.8-98.2-849.4-138.3-855-127.8c-3.8,7,8.8,14.7,24.7,46.2
		c16.9,31.6,29.6,47.7,29.6,54.7c0,31.6-34.7,20.7-65.7-31.9c-37.8-82.8-26.1-105.6-77.8-14.5c-31,54.4-73.5,56.8-86.7,53.3
		c-19.7-5.3,57.7-53.1,85-121.5c16-38.6,8.4,13.6,8.4,4.8c0-21-61.3,25.1-771,154.9c-234.1,42.1-331.3,75.2-512.7,73.5
		c-134.4,0-103.8,23-92.5,14.2c-22.5,1.1,29.2-43.7,122.5-49.7c112.4-7.3,312.4-37.6,467.5-67.4c155.1-28.1,288.3-57.6,313.7-61.1
		c107.2-19.3,430.8-90,427.9-95.3c0,0-468.5-61.2-737.4-117.7c-423-66.6-509.4-83.1-516.9-36.9c-6.6,15.8,11.3,0,0,0
		c-32,0-346.3-84-339.7-96.2c5.6-8.8,248-15.6,314.7-17.3c26.3-1.8,43.9,17.1,47.7,41.7c0,0-29.8,10.7,265.9,40.7
		c946.6,145,991.8,178.6,1005,155.8c2.8-7-20.8-20.8-38.7-59.4c-39.5-84.2,6.7-48.9,54.3,21.1c72.5,106.7,12.2,18.3,26.7,43.3"/>
</g>
</svg>
