<?xml version="1.0" encoding="utf-8"?>
<!DOCTYPE svg PUBLIC "-//W3C//DTD SVG 1.1//EN" "http://www.w3.org/Graphics/SVG/1.1/DTD/svg11.dtd">
<svg version="1.1" id="Capa_1" xmlns="http://www.w3.org/2000/svg" xmlns:xlink="http://www.w3.org/1999/xlink" x="0px" y="0px"
	 width="321px" height="37px" viewBox="0 0 321 37" enable-background="new 0 0 321 37" xml:space="preserve">
<g transform="translate(0.000000,37.000000) scale(0.100000,-0.100000)">
	<path d="M-416.24,510.508c-7.109-4.258-9.775-11.328-5.4-15.415c8.711-8.853,92.002-16.26,2169.677-203.232
		c598.974-53.823,1112.344-101.44,1140.801-105.269c45.518-6.465,51.104-9.307,46.992-22.168
		c-4.092-12.217-0.781-14.951,16.543-12.422c11.543,1.465,72.568,6.738,134.717,11.27c63.281,4.531,116.27,9.473,118.623,10.684
		c5.879,3.027-223.525,65.444-241.826,66.221c-8.008,0.332-15.176-5.229-15.566-12.393c-0.371-7.148-6.396-12.759-13.252-12.466
		c-21.387,0.884-621.172,55.474-1361.177,122.329C833.442,404.59,103.237,470.444-47.363,483.94
		c-150.62,13.491-292.075,26.602-314.858,29.517C-388.423,516.509-409.116,515.425-416.24,510.508z"/>
</g>
</svg>
