<?xml version="1.0" encoding="utf-8"?>
<!DOCTYPE svg PUBLIC "-//W3C//DTD SVG 1.1//EN" "http://www.w3.org/Graphics/SVG/1.1/DTD/svg11.dtd">
<svg version="1.1" id="Layer_1" xmlns="http://www.w3.org/2000/svg" xmlns:xlink="http://www.w3.org/1999/xlink" x="0px" y="0px"
	 width="135px" height="140px" viewBox="0 0 135 140" enable-background="new 0 0 135 140" xml:space="preserve">
<g>
	<path fill-rule="evenodd" clip-rule="evenodd" fill="#1E1C16" d="M67.711,9.527c-33.347,0-60.388,27.035-60.388,60.388
		c0,26.681,17.303,49.316,41.297,57.302c3.018,0.559,4.126-1.311,4.126-2.905c0-1.439-0.056-6.197-0.082-11.243
		c-16.8,3.653-20.345-7.125-20.345-7.125c-2.747-6.979-6.705-8.836-6.705-8.836c-5.479-3.748,0.413-3.671,0.413-3.671
		c6.063,0.426,9.257,6.224,9.257,6.224c5.386,9.231,14.127,6.563,17.573,5.02c0.542-3.902,2.106-6.567,3.834-8.075
		c-13.413-1.526-27.514-6.705-27.514-29.844c0-6.593,2.359-11.98,6.223-16.209c-0.627-1.521-2.694-7.663,0.585-15.981
		c0,0,5.071-1.622,16.61,6.191c4.817-1.338,9.983-2.009,15.115-2.033c5.132,0.023,10.302,0.694,15.128,2.033
		c11.526-7.813,16.59-6.191,16.59-6.191c3.287,8.318,1.22,14.46,0.593,15.981c3.872,4.229,6.215,9.616,6.215,16.209
		c0,23.194-14.127,28.301-27.574,29.796c2.166,1.874,4.096,5.549,4.096,11.183c0,8.08-0.069,14.583-0.069,16.572
		c0,1.607,1.087,3.49,4.147,2.897c23.981-7.994,41.263-30.622,41.263-57.294C128.099,36.563,101.062,9.527,67.711,9.527z"/>
	<path fill="#1E1C16" d="M30.195,96.23c-0.133,0.301-0.605,0.391-1.035,0.185c-0.438-0.197-0.684-0.606-0.542-0.907
		c0.13-0.309,0.603-0.395,1.04-0.188C30.097,95.517,30.347,95.93,30.195,96.23L30.195,96.23z M29.452,95.68"/>
	<path fill="#1E1C16" d="M32.642,98.959c-0.288,0.267-0.852,0.143-1.233-0.279c-0.396-0.421-0.469-0.984-0.177-1.255
		c0.297-0.267,0.843-0.142,1.238,0.279C32.865,98.13,32.942,98.688,32.642,98.959L32.642,98.959z M32.065,98.341"/>
	<path fill="#1E1C16" d="M35.022,102.437c-0.37,0.258-0.976,0.017-1.35-0.521c-0.37-0.537-0.37-1.182,0.009-1.439
		c0.374-0.258,0.971-0.025,1.35,0.507C35.4,101.529,35.4,102.174,35.022,102.437L35.022,102.437z M35.022,102.437"/>
	<path fill="#1E1C16" d="M38.284,105.797c-0.331,0.365-1.036,0.267-1.552-0.231c-0.528-0.486-0.675-1.178-0.344-1.543
		c0.336-0.365,1.045-0.263,1.564,0.231C38.478,104.74,38.637,105.436,38.284,105.797L38.284,105.797z M38.284,105.797"/>
	<path fill="#1E1C16" d="M42.784,107.748c-0.146,0.473-0.825,0.688-1.509,0.486c-0.684-0.207-1.13-0.761-0.992-1.238
		c0.142-0.477,0.824-0.7,1.513-0.485C42.479,106.717,42.926,107.267,42.784,107.748L42.784,107.748z M42.784,107.748"/>
	<path fill="#1E1C16" d="M47.727,108.109c0.017,0.498-0.563,0.911-1.281,0.92c-0.722,0.017-1.307-0.387-1.314-0.877
		c0-0.503,0.567-0.911,1.289-0.924C47.138,107.215,47.727,107.615,47.727,108.109L47.727,108.109z M47.727,108.109"/>
	<path fill="#1E1C16" d="M52.325,107.327c0.086,0.485-0.413,0.984-1.126,1.117c-0.701,0.129-1.35-0.172-1.439-0.653
		c-0.087-0.498,0.421-0.997,1.121-1.126C51.595,106.541,52.234,106.833,52.325,107.327L52.325,107.327z M52.325,107.327"/>
</g>
</svg>
