<?xml version="1.0" encoding="utf-8"?>
<!-- Generator: Adobe Illustrator 15.0.0, SVG Export Plug-In . SVG Version: 6.00 Build 0)  -->
<!DOCTYPE svg PUBLIC "-//W3C//DTD SVG 1.1//EN" "http://www.w3.org/Graphics/SVG/1.1/DTD/svg11.dtd">
<svg version="1.1" id="Capa_1" xmlns="http://www.w3.org/2000/svg" xmlns:xlink="http://www.w3.org/1999/xlink" x="0px" y="0px"
	 width="321px" height="37px" viewBox="0 0 321 37" enable-background="new 0 0 321 37" xml:space="preserve">
<g id="Capa_1_copia">
	<g transform="translate(0.000000,37.000000) scale(0.100000,-0.100000)" display="none">
		<path display="inline" d="M12.852,494.395c-6.04-8.892-8.057-22.866-4.028-30.474c8.057-16.504,81.533-24.121,1914.468-218.364
			c528.447-55.864,981.406-106.65,1006.563-111.729c40.264-8.906,45.293-13.955,42.295-39.355c-3.037-24.121,0-29.189,15.088-22.852
			c10.068,3.818,63.398,19.033,117.764,33.018c55.371,13.955,101.65,27.92,103.682,30.469c5.039,6.338-199.307,109.17-215.41,109.17
			c-7.061,0-13.086-11.421-13.086-25.381c0-13.97-5.039-25.386-11.074-25.386c-7.021,0-546.582,57.124-1200.83,126.934
			C1115.029,390.283,470.835,458.843,337.959,472.803c-132.856,13.979-257.676,27.949-277.803,31.753
			C37.007,508.355,18.887,504.541,12.852,494.395z"/>
	</g>
	<g transform="translate(0.000000,37.000000) scale(0.100000,-0.100000)">
		<path fill="#3E5E3E" d="M3155.381,485.054c-20.059-2.554-145.176-14.204-278.457-26.245
			c-133.32-12.031-779.453-70.757-1434.663-130.415C786.021,268.643,244.839,219.585,237.705,219.273
			c-6.113-0.308-12.144,4.272-13.281,10.127c-1.157,5.874-8.184,10.4-15.327,10.088c-16.289-0.732-214.6-53.423-208.984-55.879
			c2.251-0.972,50.239-4.683,107.388-8.003c56.147-3.34,111.377-7.256,121.86-8.359c15.806-1.982,18.447,0.273,13.413,10.293
			c-5.137,10.503-0.464,12.876,39.546,18.477c25.039,3.33,479.165,45.654,1009.248,93.677
			c1838.569,166.743,1912.29,173.369,1919.096,180.679c3.428,3.374,0.283,9.16-6.563,12.607
			C3197.148,486.973,3178.476,487.725,3155.381,485.054z"/>
	</g>
	<g transform="translate(0.000000,37.000000) scale(0.100000,-0.100000)">
		<path fill="#3E3E7E" d="M8.809,480.577c-6.86-3.428-10.059-9.199-6.631-12.607c6.768-7.314,80.459-14.136,1918.271-185.669
			c529.873-49.385,983.799-92.935,1008.828-96.309c39.99-5.698,44.658-8.091,39.492-18.608c-5.068-9.99-2.451-12.227,13.34-10.313
			c10.488,1.074,65.732,4.873,121.904,8.057c57.188,3.174,105.176,6.748,107.422,7.734c5.625,2.412-192.451,55.63-208.76,56.406
			c-7.109,0.337-14.629,33.77-15.791,27.891c-1.172-5.83-6.777-48.33-12.861-48.037c-7.158,0.347-548.125,50.806-1204.092,112.256
			c-654.927,61.387-1300.82,121.797-1434.062,134.175c-133.228,12.388-258.296,24.37-278.34,26.963
			C34.429,485.254,15.762,484.556,8.809,480.577z"/>
	</g>
</g>
</svg>
