<?xml version="1.0" encoding="utf-8"?>
<!DOCTYPE svg PUBLIC "-//W3C//DTD SVG 1.1//EN" "http://www.w3.org/Graphics/SVG/1.1/DTD/svg11.dtd">
<svg version="1.1" id="Capa_1" xmlns="http://www.w3.org/2000/svg" xmlns:xlink="http://www.w3.org/1999/xlink" x="0px" y="0px"
	 width="321px" height="37px" viewBox="0 0 321 37" enable-background="new 0 0 321 37" xml:space="preserve">
<g transform="translate(0.000000,37.000000) scale(0.100000,-0.100000)">
	<path d="M15.991,498.467c-30.791-23.755-92.715-15.928,1364.326-172.236c235.142-25.103,429.927-46.206,431.841-47.686
		c1.904-1.494-6.563-12.998-18.037-25.767c-11.475-12.759-18.975-25.01-16.104-27.246c13.33-10.435,29.463-4.185,46.328,18.12
		c9.512,12.856,20.879,23.525,25.82,23.291c4.932-0.234,17.158-13.413,29.268-29.39c11.104-15.933,24.336-29.16,29.258-29.39
		c14.805-0.703,19.668,18.672,7.217,26.973c-6.709,4.507-19.795,20.537-27.949,36.328c-16.484,28.081-16.484,28.081,10.635,57.617
		c14.619,16.812,27.285,33.721,27.49,37.91c0.791,16.772-19.365,8.618-42.363-17.603c-13.545-14.771-26.973-26.738-30.918-26.553
		c-2.969,0.142-15.254,11.919-26.474,25.757c-11.211,13.833-23.506,25.62-27.461,25.806c-17.754,0.835-18.213-8.94-0.527-32.183
		c10.225-13.789,17.568-26.05,15.527-27.349c-2.031-1.299-198.828,19.194-436.904,45.132
		c-238.096,25.244-622.768,66.504-855.937,91.523c-233.164,25.01-438.774,47.319-458.408,50.347
		C40.029,505.034,22.163,503.779,15.991,498.467z"/>
</g>
</svg>
